<?xml version="1.0" encoding="utf-8"?>
<!-- Generator: Adobe Illustrator 25.2.1, SVG Export Plug-In . SVG Version: 6.00 Build 0)  -->
<svg version="1.1" id="Layer_2_1_" xmlns="http://www.w3.org/2000/svg" xmlns:xlink="http://www.w3.org/1999/xlink" x="0px" y="0px"
	 viewBox="0 0 1366 768" style="enable-background:new 0 0 1366 768;" xml:space="preserve">
<style type="text/css">
	.st0{enable-background:new    ;}
	.st1{fill:url(#SVGID_1_);}
	.st2{fill:url(#SVGID_2_);}
	.st3{fill:url(#SVGID_3_);}
</style>
<g>
	<g>
		<g class="st0">
			<g>
				<g>
					<linearGradient id="SVGID_1_" gradientUnits="userSpaceOnUse" x1="443.1407" y1="613.079" x2="600.0126" y2="341.3689">
						<stop  offset="0" style="stop-color:#31006A"/>
						<stop  offset="1" style="stop-color:#597188"/>
					</linearGradient>
					<polygon class="st1" points="365.7,567.1 364.7,205.5 677.4,387.2 678.4,748.9 					"/>
					<path d="M368.8,212.5l304.7,177l1,352.4L369.7,564.8L368.8,212.5 M360.7,198.6l1,370.9l320.7,186.5l-1-371L360.7,198.6
						L360.7,198.6z"/>
				</g>
			</g>
			<g>
				<g>
					<linearGradient id="SVGID_2_" gradientUnits="userSpaceOnUse" x1="368.7019" y1="198.5172" x2="996.2747" y2="198.5172">
						<stop  offset="0" style="stop-color:#317B95"/>
						<stop  offset="1" style="stop-color:#CF368D"/>
					</linearGradient>
					<polygon class="st2" points="368.7,198.6 683.6,16.7 996.3,198.6 681.4,380.3 					"/>
					<path d="M683.6,21.4l304.7,177.2L681.4,375.7L376.7,198.6L683.6,21.4 M683.6,12.1L360.7,198.6l320.7,186.3l322.8-186.3
						L683.6,12.1L683.6,12.1z"/>
				</g>
			</g>
			<g>
				<g>
					<linearGradient id="SVGID_3_" gradientUnits="userSpaceOnUse" x1="686.4214" y1="748.9644" x2="1000.216" y2="205.4561">
						<stop  offset="0" style="stop-color:#4C3A95"/>
						<stop  offset="1" style="stop-color:#96517D"/>
					</linearGradient>
					<polygon class="st3" points="685.4,387.2 1000.3,205.5 1001.3,567.1 686.4,749 					"/>
					<path d="M996.3,212.4l1,352.4L690.4,742l-1-352.5L996.3,212.4 M1004.3,198.6L681.4,384.9l1,371l322.8-186.5L1004.3,198.6
						L1004.3,198.6z"/>
				</g>
			</g>
		</g>
	</g>
</g>
</svg>
